# xmcd
#
# Track frame offsets: 
#        150
#        10175
#        22825
#        34137
#        47637
#        62837
#        71525
#        84337
#        98162
#        110500
#        124812
#        135987
#        147612
#        157700
#        168462
#        178162
#        197512
#        208612
#        223512
#        239887
#
# Disc length: 3341 seconds
#
# Revision: 4
# Processed by: cddbd v1.5.2PL0 Copyright (c) Steve Scherf et al.
# Submitted via: ExactAudioCopyFreeDBPlugin 1.0
#
DISCID=170d0b14
DTITLE=Various Artist - A Pop 'N' Country Christmas - Disc 1
DYEAR=1998
DGENRE=Christmas
TTITLE0=Kenny Rogers - Winter Wonderland
TTITLE1=Steve Wariner - Let It Snow! Let It Snow! Let It Snow!
TTITLE2=Dean Martin - White Christmas
TTITLE3=Johnny Mathis - Sleigh Ride
TTITLE4=Merle Haggard - Silver Bells
TTITLE5=The Beach Boys - Frosty The Snowman
TTITLE6=Margaret Whiting and Johnny Mercer - Baby, It's Cold Outside
TTITLE7=B.J. Thomas with The London Philharmonic Orchestra - Jingle Be
TTITLE7=lls
TTITLE8=Dean Martin - I've Got My Love To Keep Me Warm
TTITLE9=Nat King Cole - The Christmas Song (Chestnuts Roasting On An O
TTITLE9=pen Fire)
TTITLE10=Kathie Lee Gifford - It's Beginning To Look A Lot Like Christ
TTITLE10=mas
TTITLE11=Jackie Gleason and His Orchestra - Happy Holiday
TTITLE12=Burl Ives - A Holly Jolly Christmas
TTITLE13=The Letterman - I'll Be Home For Christmas
TTITLE14=Roy Rogers and Dale Evans - It's The Most Wonderful Time Of T
TTITLE14=he Year
TTITLE15=Steve Wariner - A Tennessee Christmas
TTITLE16=Bing Crosby - Christmas Dinner, Country Style
TTITLE17=Glen Campbell - There's No Place Like Home
TTITLE18=Charlie Daniels - Christmastime In Dixie
TTITLE19=Hank Thompson and His Brazos Valley Boys - It's Christmas Tim
TTITLE19=e
EXTD=
EXTT0=
EXTT1=
EXTT2=
EXTT3=
EXTT4=
EXTT5=
EXTT6=
EXTT7=
EXTT8=
EXTT9=
EXTT10=
EXTT11=
EXTT12=
EXTT13=
EXTT14=
EXTT15=
EXTT16=
EXTT17=
EXTT18=
EXTT19=
PLAYORDER=
